<svg width="24" height="24" viewBox="0 0 24 24" fill="white" xmlns="http://www.w3.org/2000/svg">
  <path d="M24 4.557a9.93 9.93 0 0 1-2.828.775 4.932 4.932 0 0 0 2.165-2.724 9.864 9.864 0 0 1-3.127 1.194 4.918 4.918 0 0 0-8.379 4.482A13.955 13.955 0 0 1 1.671 3.149 4.917 4.917 0 0 0 3.18 9.723a4.903 4.903 0 0 1-2.228-.616v.06a4.916 4.916 0 0 0 3.946 4.827 4.922 4.922 0 0 1-2.224.085 4.918 4.918 0 0 0 4.6 3.417A9.874 9.874 0 0 1 0 19.54a13.94 13.94 0 0 0 7.548 2.209c9.057 0 14.01-7.507 14.01-14.01 0-.213-.005-.426-.015-.637A10.012 10.012 0 0 0 24 4.557z"/>
</svg>
